<svg width="32" height="32" viewBox="0 0 32 32" fill="none" xmlns="http://www.w3.org/2000/svg">
  <!-- Hotel building -->
  <rect x="6" y="8" width="20" height="20" fill="#2563eb" stroke="#1d4ed8" stroke-width="1"/>
  <!-- Windows -->
  <rect x="9" y="11" width="2" height="2" fill="white"/>
  <rect x="13" y="11" width="2" height="2" fill="white"/>
  <rect x="17" y="11" width="2" height="2" fill="white"/>
  <rect x="21" y="11" width="2" height="2" fill="white"/>
  
  <rect x="9" y="15" width="2" height="2" fill="white"/>
  <rect x="13" y="15" width="2" height="2" fill="white"/>
  <rect x="17" y="15" width="2" height="2" fill="white"/>
  <rect x="21" y="15" width="2" height="2" fill="white"/>
  
  <rect x="9" y="19" width="2" height="2" fill="white"/>
  <rect x="13" y="19" width="2" height="2" fill="white"/>
  <rect x="17" y="19" width="2" height="2" fill="white"/>
  <rect x="21" y="19" width="2" height="2" fill="white"/>
  
  <!-- Door -->
  <rect x="14" y="23" width="4" height="5" fill="white"/>
  <!-- Roof -->
  <polygon points="6,8 16,4 26,8" fill="#1d4ed8"/>
</svg>
